# xmcd
#
# Track frame offsets:
# 150
# 15231
# 34047
#
# Disc length: 655 seconds
#
#
# Revision: 1
# Processed by: cddbd v1.5.2PL0 Copyright (c) Steve Scherf et al.
# Submitted via: FreeRIP 2.944 
#
DISCID=13028d03
DTITLE=Mark Janicello - 061 - Mark Janicello - Great Big Mama
DYEAR=1994
DGENRE=Country
TTITLE0=Great Big Mama (Radio Edit)
TTITLE1=Great Big Mama (Double Dutch Mix)
TTITLE2=Kourin, kourin - Tuppisuumix
EXTD=
EXTT0=
EXTT1=
EXTT2=
PLAYORDER=
